<svg width="1510" height="520" viewBox="0 0 1510 520" fill="none" xmlns="http://www.w3.org/2000/svg">
<g clip-path="url(#clip0_1791_2354)">
<path opacity="0.15" d="M1680.94 162.281C1682.31 163.505 1682.61 165.567 1681.62 166.888C1680.62 168.209 1678.7 168.287 1677.33 167.064L1680.94 162.281ZM1570.53 102.625L1570.82 99.4386L1570.82 99.4386L1570.53 102.625ZM1444.71 109.492L1444.51 112.697L1444.51 112.697L1444.71 109.492ZM1296.17 5.81887L1296.05 9.03729L1296.05 9.03729L1296.17 5.81887ZM1190.97 15.271C1189.35 15.5964 1187.63 14.4248 1187.12 12.6541C1186.62 10.8834 1187.53 9.18423 1189.15 8.85883L1190.97 15.271ZM1679.13 164.673C1677.33 167.064 1677.33 167.064 1677.33 167.064C1677.33 167.064 1677.33 167.064 1677.33 167.063C1677.32 167.062 1677.32 167.06 1677.32 167.058C1677.31 167.053 1677.3 167.045 1677.29 167.034C1677.27 167.012 1677.23 166.978 1677.18 166.933C1677.07 166.842 1676.92 166.704 1676.71 166.523C1676.29 166.161 1675.67 165.625 1674.86 164.936C1673.24 163.557 1670.86 161.568 1667.83 159.141C1661.78 154.286 1653.17 147.688 1642.95 140.729C1622.44 126.765 1595.71 111.539 1570.25 105.811L1570.82 99.4386C1597.48 105.436 1625.06 121.233 1645.81 135.362C1656.22 142.449 1664.99 149.165 1671.15 154.112C1674.24 156.586 1676.67 158.62 1678.34 160.039C1679.18 160.749 1679.82 161.305 1680.26 161.686C1680.48 161.876 1680.64 162.023 1680.76 162.123C1680.81 162.173 1680.86 162.212 1680.89 162.238C1680.9 162.251 1680.91 162.262 1680.92 162.269C1680.93 162.272 1680.93 162.275 1680.93 162.277C1680.93 162.278 1680.93 162.279 1680.93 162.28C1680.93 162.281 1680.94 162.281 1679.13 164.673ZM1570.25 105.811C1549.52 101.148 1529.38 104.806 1508.56 108.789C1487.95 112.733 1466.65 117.003 1444.51 112.697L1444.91 106.287C1465.74 110.339 1485.94 106.357 1506.78 102.368C1527.43 98.4185 1548.71 94.4642 1570.82 99.4386L1570.25 105.811ZM1444.51 112.697C1414.81 106.92 1391.16 82.4434 1368.5 59.3281C1345.44 35.8033 1323.37 13.6444 1296.05 9.03729L1296.3 2.60046C1326.1 7.6272 1349.8 31.7621 1372.48 54.894C1395.55 78.4355 1417.61 100.979 1444.91 106.287L1444.51 112.697ZM1296.05 9.03729C1276.1 5.67227 1249.91 7.18813 1228.51 9.60549C1217.85 10.8095 1208.46 12.2275 1201.73 13.3445C1198.36 13.9029 1195.67 14.3857 1193.82 14.7284C1192.89 14.8997 1192.18 15.036 1191.69 15.1291C1191.45 15.1757 1191.27 15.2115 1191.15 15.2355C1191.09 15.2475 1191.04 15.2565 1191.01 15.2625C1191 15.2655 1190.99 15.2677 1190.98 15.2691C1190.98 15.2698 1190.97 15.2703 1190.97 15.2707C1190.97 15.2708 1190.97 15.2709 1190.97 15.271C1190.97 15.271 1190.97 15.271 1190.06 12.0649C1189.15 8.85883 1189.15 8.85872 1189.15 8.85857C1189.15 8.85845 1189.15 8.85824 1189.15 8.858C1189.15 8.85753 1189.16 8.85685 1189.16 8.85598C1189.17 8.85424 1189.18 8.85172 1189.2 8.84842C1189.23 8.84183 1189.28 8.83216 1189.35 8.81953C1189.47 8.79429 1189.66 8.75722 1189.91 8.70936C1190.41 8.61364 1191.13 8.4747 1192.07 8.30064C1193.96 7.95254 1196.68 7.46388 1200.08 6.89948C1206.88 5.77096 1216.37 4.33822 1227.15 3.12114C1248.61 0.696408 1275.48 -0.910764 1296.3 2.60046L1296.05 9.03729Z" fill="#ADB6D0"/>
<ellipse rx="3.12282" ry="3.22331" transform="matrix(0.638549 0.769565 -0.557058 0.830459 756.011 446.082)" fill="#ADB6D0"/>
<ellipse rx="3.12282" ry="3.22331" transform="matrix(0.638547 0.769568 -0.557056 0.830462 747.937 458.119)" fill="#ADB6D0"/>
<ellipse rx="3.12282" ry="3.22332" transform="matrix(0.638546 0.769569 -0.557055 0.830463 739.865 470.156)" fill="#ADB6D0"/>
<ellipse rx="3.12281" ry="3.2233" transform="matrix(0.638547 0.769567 -0.557057 0.830461 731.79 482.193)" fill="#ADB6D0"/>
<ellipse rx="3.12282" ry="3.22331" transform="matrix(0.638547 0.769568 -0.557056 0.830462 764.991 456.904)" fill="#ADB6D0"/>
<ellipse rx="3.12281" ry="3.22331" transform="matrix(0.638544 0.769572 -0.557053 0.830465 756.915 468.942)" fill="#ADB6D0"/>
<ellipse rx="3.12281" ry="3.2233" transform="matrix(0.638547 0.769567 -0.557057 0.830461 748.843 480.978)" fill="#ADB6D0"/>
<ellipse rx="3.12282" ry="3.22332" transform="matrix(0.638546 0.769569 -0.557055 0.830463 740.769 493.017)" fill="#ADB6D0"/>
<ellipse rx="3.12281" ry="3.2233" transform="matrix(0.638545 0.769571 -0.557054 0.830464 773.968 467.728)" fill="#ADB6D0"/>
<ellipse rx="3.12281" ry="3.2233" transform="matrix(0.638547 0.769567 -0.557057 0.830461 765.896 479.765)" fill="#ADB6D0"/>
<ellipse rx="3.12282" ry="3.22332" transform="matrix(0.638546 0.769569 -0.557055 0.830463 757.822 491.802)" fill="#ADB6D0"/>
<ellipse rx="3.12282" ry="3.22332" transform="matrix(0.638546 0.769569 -0.557055 0.830463 749.747 503.839)" fill="#ADB6D0"/>
<ellipse rx="3.12282" ry="3.22331" transform="matrix(0.638549 0.769565 -0.557058 0.830459 782.949 478.55)" fill="#ADB6D0"/>
<ellipse rx="3.1228" ry="3.2233" transform="matrix(0.638546 0.769569 -0.557055 0.830463 774.876 490.589)" fill="#ADB6D0"/>
<ellipse rx="3.12282" ry="3.22331" transform="matrix(0.638546 0.769569 -0.557055 0.830463 766.8 502.625)" fill="#ADB6D0"/>
<ellipse rx="3.12281" ry="3.2233" transform="matrix(0.638547 0.769567 -0.557057 0.830461 758.73 514.662)" fill="#ADB6D0"/>
<path opacity="0.15" d="M515.549 274.698C517.154 274.131 517.917 272.319 517.254 270.651C516.59 268.983 514.751 268.09 513.147 268.657L515.549 274.698ZM349.024 287.599L348.529 290.711L349.024 287.599ZM183.847 200.293L184.434 197.203L183.847 200.293ZM-48.5786 247.32L-47.9142 244.251L-48.5786 247.32ZM-186.053 170.495C-187.522 169.461 -189.463 169.779 -190.39 171.205C-191.317 172.631 -190.879 174.626 -189.41 175.661L-186.053 170.495ZM514.348 271.678C513.147 268.657 513.147 268.657 513.147 268.657C513.146 268.658 513.146 268.658 513.145 268.658C513.143 268.659 513.139 268.66 513.134 268.662C513.125 268.665 513.109 268.67 513.089 268.678C513.047 268.692 512.984 268.714 512.899 268.744C512.728 268.803 512.472 268.891 512.132 269.006C511.454 269.236 510.443 269.572 509.127 269.996C506.496 270.844 502.647 272.04 497.796 273.425C488.091 276.196 474.388 279.719 458.413 282.727C426.384 288.757 385.545 292.647 349.519 284.487L348.529 290.711C385.811 299.155 427.633 295.085 459.94 289.003C476.132 285.955 490.015 282.385 499.854 279.576C504.775 278.171 508.687 276.956 511.374 276.09C512.718 275.657 513.756 275.311 514.461 275.072C514.813 274.953 515.082 274.861 515.265 274.797C515.356 274.766 515.426 274.742 515.473 274.725C515.497 274.717 515.515 274.71 515.528 274.706C515.534 274.704 515.539 274.702 515.543 274.701C515.545 274.7 515.546 274.699 515.547 274.699C515.548 274.699 515.549 274.698 514.348 271.678ZM349.519 284.487C320.115 277.827 294.344 260.271 267.996 242.022C241.848 223.912 215.113 205.102 184.434 197.203L183.26 203.382C212.582 210.931 238.308 228.95 264.684 247.219C290.861 265.349 317.678 283.723 348.529 290.711L349.519 284.487ZM184.434 197.203C143.392 186.636 104.077 204.62 66.0916 221.633C27.5932 238.875 -9.57146 255.143 -47.9142 244.251L-49.243 250.389C-8.32933 262.01 30.9285 244.52 68.9337 227.498C107.452 210.247 144.722 193.46 183.26 203.382L184.434 197.203ZM-47.9142 244.251C-75.7524 236.344 -110.219 217.984 -137.906 201.45C-151.71 193.207 -163.755 185.462 -172.349 179.779C-176.645 176.938 -180.077 174.613 -182.432 173C-183.609 172.194 -184.517 171.566 -185.13 171.14C-185.436 170.927 -185.668 170.765 -185.823 170.656C-185.901 170.602 -185.959 170.561 -185.997 170.534C-186.017 170.521 -186.031 170.511 -186.04 170.504C-186.045 170.501 -186.048 170.498 -186.051 170.497C-186.052 170.496 -186.052 170.496 -186.053 170.495C-186.053 170.495 -186.053 170.495 -187.732 173.078C-189.41 175.661 -189.41 175.661 -189.409 175.662C-189.408 175.662 -189.407 175.663 -189.405 175.664C-189.403 175.666 -189.398 175.669 -189.393 175.673C-189.382 175.68 -189.367 175.691 -189.346 175.706C-189.305 175.735 -189.243 175.778 -189.163 175.834C-189.002 175.947 -188.764 176.113 -188.451 176.33C-187.826 176.765 -186.905 177.402 -185.714 178.217C-183.332 179.849 -179.87 182.194 -175.54 185.058C-166.881 190.784 -154.745 198.587 -140.831 206.896C-113.085 223.466 -77.9749 242.227 -49.243 250.389L-47.9142 244.251Z" fill="#ADB6D0"/>
</g>
<defs>
<clipPath id="clip0_1791_2354">
<rect width="1512" height="520" fill="white"/>
</clipPath>
</defs>
</svg>
