<svg width="146" height="41" viewBox="0 0 146 41" fill="none" xmlns="http://www.w3.org/2000/svg">
<path d="M21.5 40.8359C33.3741 40.8359 43 31.8816 43 20.8359C43 9.79024 33.3741 0.835938 21.5 0.835938C9.62588 0.835938 0 9.79024 0 20.8359C0 31.8816 9.62588 40.8359 21.5 40.8359Z" fill="white"/>
<path fill-rule="evenodd" clip-rule="evenodd" d="M10.6055 9.72461V25.2802H13.496V18.8135H13.9021L19.5635 24.9435V33.0575H22.454V26.5908H22.8601L28.8324 33.0575H32.6307L25.1057 25.1686L32.3918 17.502H28.689L22.8601 23.8353H22.454V17.502H19.5635V20.9722L16.1477 17.3913L23.4338 9.72461H19.731L13.9021 16.0579H13.496V9.72461H10.6055Z" fill="#0A2472"/>
<path d="M51 18.7544V3.33594H53.912V9.61347H54.3211L60.1931 3.33594H63.9233L56.5833 10.9351L64.164 18.7544H60.3375L54.3211 12.3448H53.912V18.7544H51Z" fill="white"/>
<path d="M69.7489 19.0628C68.9146 19.0628 68.1606 18.9307 67.4867 18.6663C66.8129 18.3873 66.2754 17.9909 65.8743 17.4769C65.4893 16.963 65.2968 16.3315 65.2968 15.5826C65.2968 14.8484 65.4893 14.2317 65.8743 13.7324C66.2754 13.2331 66.8209 12.8587 67.5108 12.6091C68.2007 12.3447 68.9868 12.2126 69.8693 12.2126H73.3107V11.5518C73.3107 10.9791 73.1181 10.5166 72.7331 10.1641C72.348 9.79703 71.7464 9.61347 70.9281 9.61347C70.126 9.61347 69.5163 9.78968 69.0991 10.1421C68.6981 10.4798 68.4333 10.9204 68.305 11.4637L65.754 10.6928C65.9465 10.1201 66.2514 9.59879 66.6685 9.12889C67.1017 8.65899 67.6712 8.28454 68.3772 8.00554C69.0831 7.71186 69.9495 7.56501 70.9763 7.56501C72.5325 7.56501 73.7519 7.92478 74.6343 8.64431C75.5327 9.34915 75.982 10.3771 75.982 11.728V16.0011C75.982 16.4417 76.2066 16.6619 76.6558 16.6619H77.6666V18.7544H75.7172C75.1397 18.7544 74.6664 18.6223 74.2974 18.358C73.9283 18.0936 73.7438 17.7339 73.7438 17.2787V17.2346H73.3347C73.2385 17.4402 73.07 17.6898 72.8293 17.9835C72.5887 18.2772 72.2197 18.5342 71.7223 18.7544C71.241 18.96 70.5832 19.0628 69.7489 19.0628ZM70.2062 16.9923C71.1207 16.9923 71.8667 16.7574 72.4443 16.2875C73.0219 15.8029 73.3107 15.1568 73.3107 14.3492V14.1289H70.0377C69.4441 14.1289 68.9628 14.2464 68.5938 14.4813C68.2248 14.7163 68.0403 15.0613 68.0403 15.5166C68.0403 15.9571 68.2328 16.3168 68.6178 16.5959C69.0029 16.8602 69.5323 16.9923 70.2062 16.9923Z" fill="white"/>
<path d="M79.9564 18.7544V7.87338H82.6758V9.08484H83.0849C83.2935 8.71773 83.6384 8.39468 84.1198 8.11567C84.6171 7.82199 85.2749 7.67515 86.0932 7.67515C86.9595 7.67515 87.6574 7.83667 88.1869 8.15973C88.7163 8.48278 89.1174 8.89394 89.3902 9.39321H89.7752C90.048 8.89394 90.441 8.48278 90.9544 8.15973C91.4678 7.83667 92.1978 7.67515 93.1444 7.67515C93.8824 7.67515 94.5483 7.82199 95.1419 8.11567C95.7515 8.40936 96.2329 8.84255 96.5858 9.41523C96.9548 9.98792 97.1393 10.7001 97.1393 11.5518V18.7544H94.3718V11.728C94.3718 11.0966 94.1873 10.6193 93.8183 10.2963C93.4493 9.95855 92.9359 9.78968 92.2781 9.78968C91.5561 9.78968 90.9785 10.0099 90.5453 10.4505C90.1282 10.8763 89.9196 11.4931 89.9196 12.3007V18.7544H87.1761V11.728C87.1761 11.0966 86.9916 10.6193 86.6226 10.2963C86.2536 9.95855 85.7402 9.78968 85.0824 9.78968C84.3444 9.78968 83.7668 10.0099 83.3497 10.4505C82.9325 10.8763 82.7239 11.4931 82.7239 12.3007V18.7544H79.9564Z" fill="white"/>
<path d="M100.544 23.1597V7.87338H103.263V9.3051H103.672C103.945 8.84989 104.378 8.44607 104.972 8.09365C105.582 7.74123 106.448 7.56501 107.571 7.56501C108.534 7.56501 109.424 7.78528 110.242 8.22581C111.077 8.65165 111.742 9.28308 112.24 10.1201C112.737 10.9571 112.986 11.963 112.986 13.1377V13.4901C112.986 14.6649 112.737 15.6707 112.24 16.5077C111.742 17.3448 111.085 17.9835 110.266 18.424C109.448 18.8499 108.55 19.0628 107.571 19.0628C106.817 19.0628 106.183 18.982 105.67 18.8205C105.173 18.659 104.763 18.4461 104.443 18.1818C104.138 17.9174 103.897 17.6531 103.721 17.3888H103.311V23.1597H100.544ZM106.753 16.8602C107.764 16.8602 108.59 16.5665 109.232 15.9791C109.889 15.3771 110.218 14.5254 110.218 13.424V13.2038C110.218 12.0878 109.889 11.2361 109.232 10.6487C108.574 10.0613 107.748 9.76766 106.753 9.76766C105.758 9.76766 104.924 10.0613 104.25 10.6487C103.592 11.2361 103.263 12.0878 103.263 13.2038V13.424C103.263 14.5254 103.592 15.3771 104.25 15.9791C104.924 16.5665 105.758 16.8602 106.753 16.8602Z" fill="white"/>
<path d="M120.462 18.9307C119.548 18.9307 118.738 18.7471 118.032 18.38C117.326 17.9982 116.78 17.4696 116.395 16.7941C116.01 16.1039 115.818 15.3036 115.818 14.3932V7.87338H118.561V14.195C118.561 15.076 118.794 15.7295 119.259 16.1553C119.74 16.5812 120.414 16.7941 121.281 16.7941C122.259 16.7941 123.029 16.5004 123.591 15.913C124.169 15.3257 124.457 14.4813 124.457 13.38V7.87338H127.201V18.7544H124.506V17.2346H124.096C123.888 17.6311 123.503 18.0129 122.941 18.38C122.396 18.7471 121.569 18.9307 120.462 18.9307Z" fill="white"/>
<path d="M135.63 19.0628C134.089 19.0628 132.822 18.7544 131.827 18.1377C130.832 17.521 130.231 16.6179 130.022 15.4284L132.573 14.8337C132.685 15.3917 132.886 15.8323 133.175 16.1553C133.464 16.4784 133.817 16.706 134.234 16.8381C134.667 16.9703 135.132 17.0364 135.63 17.0364C136.384 17.0364 136.945 16.9116 137.314 16.6619C137.699 16.4123 137.892 16.0966 137.892 15.7148C137.892 15.3183 137.707 15.0246 137.338 14.8337C136.985 14.6428 136.44 14.4813 135.702 14.3492L134.956 14.239C134.137 14.0922 133.391 13.8939 132.718 13.6443C132.044 13.38 131.498 13.0276 131.081 12.587C130.68 12.1318 130.479 11.5591 130.479 10.869C130.479 9.81171 130.905 8.99673 131.755 8.42404C132.621 7.85136 133.752 7.56501 135.148 7.56501C136.48 7.56501 137.579 7.83667 138.445 8.37999C139.312 8.92331 139.873 9.65018 140.13 10.5606L137.579 11.2655C137.451 10.6487 137.17 10.2155 136.737 9.96589C136.303 9.70158 135.774 9.56942 135.148 9.56942C134.506 9.56942 134.009 9.67221 133.656 9.87779C133.319 10.0834 133.151 10.3771 133.151 10.7588C133.151 11.1406 133.327 11.427 133.68 11.6179C134.033 11.8088 134.506 11.9483 135.1 12.0364L135.846 12.1685C136.729 12.3154 137.523 12.5063 138.229 12.7412C138.951 12.9762 139.52 13.3139 139.937 13.7544C140.354 14.195 140.563 14.7897 140.563 15.5386C140.563 16.6693 140.114 17.543 139.215 18.1597C138.333 18.7618 137.138 19.0628 135.63 19.0628Z" fill="white"/>
<path d="M51 38.0276V22.6091H53.912V28.8866H54.3211L60.1931 22.6091H63.9233L56.5833 30.2082L64.164 38.0276H60.3375L54.3211 31.6179H53.912V38.0276H51Z" fill="white"/>
<path d="M71.3222 38.3359C70.135 38.3359 69.0681 38.1157 68.1215 37.6751C67.1909 37.2199 66.4529 36.5812 65.9074 35.7589C65.378 34.9218 65.1133 33.9233 65.1133 32.7633V32.4108C65.1133 31.2508 65.378 30.2522 65.9074 29.4152C66.4529 28.5782 67.1909 27.9395 68.1215 27.4989C69.0681 27.0584 70.135 26.8381 71.3222 26.8381C72.5095 26.8381 73.5684 27.0584 74.4989 27.4989C75.4295 27.9395 76.1594 28.5782 76.6889 29.4152C77.2344 30.2522 77.5071 31.2508 77.5071 32.4108V32.7633C77.5071 33.9233 77.2344 34.9218 76.6889 35.7589C76.1594 36.5812 75.4295 37.2199 74.4989 37.6751C73.5684 38.1157 72.5095 38.3359 71.3222 38.3359ZM71.3222 36.0892C72.333 36.0892 73.1592 35.7956 73.801 35.2082C74.4428 34.6061 74.7636 33.7691 74.7636 32.6972V32.4769C74.7636 31.405 74.4428 30.5753 73.801 29.9879C73.1592 29.3859 72.333 29.0848 71.3222 29.0848C70.3115 29.0848 69.4852 29.3859 68.8435 29.9879C68.2017 30.5753 67.8808 31.405 67.8808 32.4769V32.6972C67.8808 33.7691 68.2017 34.6061 68.8435 35.2082C69.4852 35.7956 70.3115 36.0892 71.3222 36.0892Z" fill="white"/>
<path d="M80.4499 38.0276V27.1465H83.1693V28.6663H83.5785C83.787 28.2552 84.1641 27.866 84.7096 27.4989C85.255 27.1318 86.0813 26.9483 87.1883 26.9483C88.1028 26.9483 88.913 27.1392 89.619 27.521C90.3249 27.9028 90.8704 28.4314 91.2554 29.1069C91.6565 29.7823 91.8571 30.5826 91.8571 31.5077V38.0276H89.0895V31.706C89.0895 30.8249 88.8489 30.1715 88.3676 29.7456C87.9023 29.3051 87.2365 29.0848 86.3701 29.0848C85.3914 29.0848 84.6213 29.3859 84.0598 29.9879C83.4983 30.5753 83.2175 31.4196 83.2175 32.521V38.0276H80.4499Z" fill="white"/>
<path d="M95.256 38.0276V27.1465H97.9754V28.6663H98.3846C98.5931 28.2552 98.9702 27.866 99.5156 27.4989C100.061 27.1318 100.887 26.9483 101.994 26.9483C102.909 26.9483 103.719 27.1392 104.425 27.521C105.131 27.9028 105.676 28.4314 106.062 29.1069C106.463 29.7823 106.663 30.5826 106.663 31.5077V38.0276H103.896V31.706C103.896 30.8249 103.655 30.1715 103.174 29.7456C102.708 29.3051 102.043 29.0848 101.176 29.0848C100.198 29.0848 99.4274 29.3859 98.8659 29.9879C98.3043 30.5753 98.0236 31.4196 98.0236 32.521V38.0276H95.256Z" fill="white"/>
<path d="M115.501 38.3359C114.314 38.3359 113.263 38.1083 112.348 37.6531C111.45 37.1832 110.744 36.5298 110.231 35.6928C109.733 34.8411 109.485 33.8499 109.485 32.7192V32.4549C109.485 31.3095 109.733 30.3183 110.231 29.4813C110.728 28.6443 111.426 27.9982 112.324 27.543C113.223 27.0731 114.258 26.8381 115.429 26.8381C116.584 26.8381 117.595 27.0731 118.461 27.543C119.327 27.9982 120.001 28.6443 120.483 29.4813C120.964 30.3183 121.205 31.2948 121.205 32.4108V33.3139H112.276C112.308 34.1656 112.637 34.8484 113.263 35.3624C113.889 35.8763 114.659 36.1333 115.573 36.1333C116.472 36.1333 117.137 35.9571 117.571 35.6047C118.004 35.2376 118.333 34.8264 118.557 34.3712L120.844 35.4505C120.619 35.847 120.29 36.2728 119.857 36.728C119.44 37.1685 118.878 37.5503 118.172 37.8734C117.466 38.1818 116.576 38.3359 115.501 38.3359ZM112.3 31.3976H118.389C118.325 30.6781 118.02 30.1054 117.474 29.6796C116.945 29.2537 116.255 29.0408 115.405 29.0408C114.522 29.0408 113.816 29.2537 113.287 29.6796C112.757 30.1054 112.429 30.6781 112.3 31.3976Z" fill="white"/>
<path d="M129.605 38.3359C128.45 38.3359 127.407 38.1157 126.476 37.6751C125.546 37.2346 124.808 36.5959 124.262 35.7589C123.733 34.9218 123.468 33.916 123.468 32.7412V32.4329C123.468 31.2581 123.733 30.2522 124.262 29.4152C124.808 28.5782 125.546 27.9395 126.476 27.4989C127.407 27.0584 128.45 26.8381 129.605 26.8381C130.744 26.8381 131.715 27.0217 132.517 27.3888C133.335 27.7559 133.993 28.2625 134.49 28.9086C134.988 29.5401 135.308 30.2522 135.453 31.0452L132.781 31.5518C132.717 31.0966 132.565 30.6854 132.324 30.3183C132.084 29.9365 131.739 29.6355 131.289 29.4152C130.856 29.195 130.319 29.0848 129.677 29.0848C129.019 29.0848 128.426 29.217 127.896 29.4813C127.383 29.7309 126.974 30.1127 126.669 30.6267C126.38 31.1406 126.236 31.7574 126.236 32.4769V32.6972C126.236 33.4167 126.38 34.0334 126.669 34.5474C126.974 35.0467 127.383 35.4285 127.896 35.6928C128.426 35.9571 129.019 36.0892 129.677 36.0892C130.656 36.0892 131.394 35.8616 131.891 35.4064C132.404 34.9365 132.725 34.3345 132.854 33.6003L135.525 34.1729C135.332 34.9365 134.988 35.634 134.49 36.2655C133.993 36.8969 133.335 37.4035 132.517 37.7853C131.715 38.1524 130.744 38.3359 129.605 38.3359Z" fill="white"/>
<path d="M142.342 38.0276C141.572 38.0276 140.954 37.822 140.489 37.4108C140.04 36.985 139.815 36.4123 139.815 35.6928V29.239H136.711V27.1465H139.815V23.6443H142.583V27.1465H146V29.239H142.583V35.2743C142.583 35.7148 142.807 35.9351 143.257 35.9351H145.639V38.0276H142.342Z" fill="white"/>
</svg>
