<svg width="1509" height="1112" viewBox="0 0 1509 1112" fill="none" xmlns="http://www.w3.org/2000/svg">
<path d="M1403 714.298C1403 634.052 1450.46 569 1509 569" stroke="#003883" stroke-width="48"/>
<path d="M1 1075.28C1 1075.28 26.3562 1091.38 43.7733 1093.06C59.3753 1094.57 81.627 1094.07 98.9811 1089.03M98.9811 1089.03C118.292 1083.41 131.538 1072.17 122.811 1051.79C108.398 1018.13 75.8533 1029.56 67.4846 1056.23C61.495 1075.32 78.3708 1084.55 98.9811 1089.03ZM98.9811 1089.03C111.643 1091.78 125.714 1092.73 136.759 1093.06C163.26 1093.87 183.251 1080.36 183.251 1080.36" stroke="#003883" stroke-width="2" stroke-linecap="round"/>
<path d="M0.354029 83.5652L0.708407 84.0882L0.710703 84.0853L0.718698 84.0752L0.751383 84.0339C0.780514 83.9972 0.824218 83.9424 0.881858 83.8706C0.99714 83.727 1.16815 83.5157 1.38981 83.2463C1.83314 82.7075 2.47888 81.9366 3.28631 81.011C4.90174 79.1591 7.16154 76.6912 9.74046 74.2249C12.3209 71.757 15.2112 69.3001 18.0881 67.4625C20.9728 65.62 23.8024 64.4275 26.2727 64.4275C31.1928 64.4275 34.9402 69.1506 38.8778 74.1625L38.9553 74.2612C42.7926 79.1457 46.8253 84.279 52.1915 84.279C57.5576 84.279 61.5904 79.1457 65.4277 74.2612L65.5051 74.1625C69.4428 69.1506 73.1901 64.4275 78.1102 64.4275C83.0302 64.4275 86.7776 69.1506 90.7152 74.1625L90.7927 74.2612C94.63 79.1457 98.6627 84.279 104.029 84.279C109.395 84.279 113.428 79.1457 117.265 74.2612L117.343 74.1625C121.28 69.1506 125.028 64.4275 129.948 64.4275C132.418 64.4275 135.248 65.62 138.132 67.4625C141.009 69.3001 143.899 71.757 146.48 74.2249C149.059 76.6912 151.319 79.1591 152.934 81.011C153.741 81.9366 154.387 82.7075 154.831 83.2463C155.052 83.5157 155.223 83.727 155.339 83.8706C155.396 83.9424 155.44 83.9972 155.469 84.0339L155.502 84.0752L155.512 84.0877L155.866 83.5652L156.188 83.0908C156.221 83.042 156.22 83.0418 156.22 83.0418L156.217 83.0379L156.208 83.0265L156.174 82.9827C156.143 82.9442 156.098 82.8876 156.039 82.814C155.921 82.6668 155.746 82.4516 155.521 82.1782C155.072 81.6314 154.418 80.8514 153.602 79.9159C151.971 78.0456 149.686 75.5506 147.076 73.0541C144.467 70.5591 141.523 68.0531 138.572 66.1686C135.629 64.2889 132.638 63 129.948 63C124.581 63 120.549 68.1333 116.711 73.0179L116.634 73.1165C112.696 78.1284 108.949 82.8515 104.029 82.8515C99.1088 82.8515 95.3615 78.1284 91.4239 73.1165L91.3464 73.0179C87.5091 68.1333 83.4763 63 78.1102 63C72.744 63 68.7113 68.1333 64.874 73.0179L64.7965 73.1165C60.8589 78.1284 57.1115 82.8515 52.1915 82.8515C47.2714 82.8515 43.5241 78.1284 39.5864 73.1165L39.509 73.0178C35.6716 68.1333 31.6389 63 26.2727 63C23.5819 63 20.5911 64.2889 17.6483 66.1686C14.6978 68.0531 11.7535 70.5591 9.14456 73.0541C6.5341 75.5506 4.24966 78.0456 2.61819 79.9159C1.80217 80.8514 1.1488 81.6314 0.698887 82.1782C0.473916 82.4516 0.29977 82.6668 0.18155 82.814C0.122439 82.8876 0.0773052 82.9442 0.0467866 82.9827L0.0120479 83.0265L0.000666072 83.041C0.000666072 83.041 -0.000293457 83.0422 0.354029 83.5652Z" fill="#003883"/>
<path d="M0.354029 119.299L0.708407 119.821L0.710703 119.819L0.718698 119.808L0.751383 119.767C0.780514 119.73 0.824218 119.676 0.881858 119.604C0.99714 119.46 1.16815 119.249 1.38981 118.98C1.83314 118.441 2.47888 117.67 3.28631 116.744C4.90174 114.892 7.16154 112.425 9.74046 109.958C12.3209 107.49 15.2112 105.033 18.0881 103.196C20.9728 101.353 23.8024 100.161 26.2727 100.161C31.1928 100.161 34.9402 104.884 38.8778 109.896L38.9553 109.994C42.7926 114.879 46.8253 120.012 52.1915 120.012C57.5576 120.012 61.5904 114.879 65.4277 109.994L65.5051 109.896C69.4428 104.884 73.1901 100.161 78.1102 100.161C83.0302 100.161 86.7776 104.884 90.7152 109.896L90.7927 109.994C94.63 114.879 98.6627 120.012 104.029 120.012C109.395 120.012 113.428 114.879 117.265 109.994L117.343 109.896C121.28 104.884 125.028 100.161 129.948 100.161C132.418 100.161 135.248 101.353 138.132 103.196C141.009 105.033 143.899 107.49 146.48 109.958C149.059 112.425 151.319 114.892 152.934 116.744C153.741 117.67 154.387 118.441 154.831 118.98C155.052 119.249 155.223 119.46 155.339 119.604C155.396 119.676 155.44 119.73 155.469 119.767L155.502 119.808L155.512 119.821L155.866 119.299C156.221 118.775 156.22 118.775 156.22 118.775L156.217 118.771L156.208 118.76L156.174 118.716C156.143 118.678 156.098 118.621 156.039 118.547C155.921 118.4 155.746 118.185 155.521 117.911C155.072 117.365 154.418 116.585 153.602 115.649C151.971 113.779 149.686 111.284 147.076 108.787C144.467 106.292 141.523 103.786 138.572 101.902C135.629 100.022 132.638 98.7333 129.948 98.7333C124.581 98.7333 120.549 103.867 116.711 108.751L116.634 108.85C112.696 113.862 108.949 118.585 104.029 118.585C99.1088 118.585 95.3615 113.862 91.4239 108.85L91.3464 108.751C87.5091 103.867 83.4763 98.7333 78.1102 98.7333C72.744 98.7333 68.7113 103.867 64.874 108.751L64.7965 108.85C60.8589 113.862 57.1115 118.585 52.1915 118.585C47.2714 118.585 43.5241 113.862 39.5864 108.85L39.509 108.751C35.6716 103.867 31.6389 98.7333 26.2727 98.7333C23.5819 98.7333 20.5911 100.022 17.6483 101.902C14.6978 103.786 11.7535 106.292 9.14456 108.787C6.5341 111.284 4.24966 113.779 2.61819 115.649C1.80217 116.585 1.1488 117.365 0.698887 117.911C0.473916 118.185 0.29977 118.4 0.18155 118.547C0.122439 118.621 0.0773052 118.678 0.0467866 118.716L0.0120479 118.76L0.00304774 118.771L0.000666072 118.774C0.000666072 118.774 -0.000293457 118.775 0.354029 119.299Z" fill="#003883"/>
<path d="M0.708407 155.555L0.354029 155.032C-0.000293457 154.509 8.05178e-06 154.508 8.05178e-06 154.508L0.00304774 154.504L0.0120479 154.493L0.0467866 154.449C0.0773052 154.411 0.122439 154.354 0.18155 154.28C0.29977 154.133 0.473916 153.918 0.698887 153.644C1.1488 153.098 1.80217 152.318 2.61819 151.382C4.24966 149.512 6.5341 147.017 9.14456 144.52C11.7535 142.025 14.6978 139.519 17.6483 137.635C20.5911 135.755 23.5819 134.466 26.2727 134.466C31.6389 134.466 35.6716 139.6 39.509 144.484L39.5864 144.583C43.5241 149.595 47.2714 154.318 52.1915 154.318C57.1115 154.318 60.8589 149.595 64.7965 144.583L64.874 144.484C68.7113 139.6 72.744 134.466 78.1102 134.466C83.4763 134.466 87.5091 139.6 91.3464 144.484L91.4239 144.583C95.3615 149.595 99.1088 154.318 104.029 154.318C108.949 154.318 112.696 149.595 116.634 144.583L116.711 144.484C120.549 139.6 124.581 134.466 129.948 134.466C132.638 134.466 135.629 135.755 138.572 137.635C141.523 139.519 144.467 142.025 147.076 144.52C149.686 147.017 151.971 149.512 153.602 151.382C154.418 152.318 155.072 153.098 155.521 153.644C155.746 153.918 155.921 154.133 156.039 154.28C156.098 154.354 156.143 154.411 156.174 154.449L156.208 154.493L156.22 154.507C156.22 154.507 156.221 154.509 155.866 155.032L155.512 155.555L155.51 155.552L155.502 155.541L155.469 155.5L155.448 155.473L155.405 155.42C155.386 155.396 155.363 155.368 155.339 155.337C155.223 155.193 155.052 154.982 154.831 154.713C154.387 154.174 153.741 153.403 152.934 152.477C151.319 150.625 149.059 148.158 146.48 145.691C143.899 143.223 141.009 140.766 138.132 138.929C135.248 137.086 132.418 135.894 129.948 135.894C125.028 135.894 121.28 140.617 117.343 145.629L117.265 145.727C113.428 150.612 109.395 155.745 104.029 155.745C98.6627 155.745 94.63 150.612 90.7927 145.727L90.7152 145.629C86.7776 140.617 83.0302 135.894 78.1102 135.894C73.1901 135.894 69.4428 140.617 65.5051 145.629L65.4277 145.727C61.5904 150.612 57.5576 155.745 52.1915 155.745C46.8253 155.745 42.7926 150.612 38.9553 145.727L38.8778 145.629C34.9402 140.617 31.1928 135.894 26.2727 135.894C23.8024 135.894 20.9728 137.086 18.0881 138.929C15.2112 140.766 12.3209 143.223 9.74046 145.691C7.16154 148.158 4.90174 150.625 3.28631 152.477C2.47888 153.403 1.83314 154.174 1.38981 154.713C1.16815 154.982 0.99714 155.193 0.881858 155.337C0.824218 155.409 0.780514 155.464 0.751383 155.5L0.718698 155.541L0.708407 155.555Z" fill="#003883"/>
<path d="M0.354029 190.764L0.708407 191.287L0.718698 191.274L0.751383 191.232C0.780514 191.196 0.824218 191.141 0.881858 191.069C0.99714 190.925 1.16815 190.714 1.38981 190.445C1.83314 189.906 2.47888 189.135 3.28631 188.209C4.90174 186.358 7.16154 183.89 9.74046 181.423C12.3209 178.956 15.2112 176.499 18.0881 174.661C20.9728 172.819 23.8024 171.626 26.2727 171.626C31.1928 171.626 34.9402 176.349 38.8778 181.361L38.9553 181.46C42.7926 186.344 46.8253 191.477 52.1915 191.477C57.5576 191.477 61.5904 186.344 65.4277 181.46L65.5051 181.361C69.4428 176.349 73.1901 171.626 78.1102 171.626C83.0302 171.626 86.7776 176.349 90.7152 181.361L90.7927 181.46C94.63 186.344 98.6627 191.477 104.029 191.477C109.395 191.477 113.428 186.344 117.265 181.46L117.343 181.361C121.28 176.349 125.028 171.626 129.948 171.626C132.418 171.626 135.248 172.819 138.132 174.661C141.009 176.499 143.899 178.956 146.48 181.423C149.059 183.89 151.319 186.358 152.934 188.209C153.741 189.135 154.387 189.906 154.831 190.445C155.052 190.714 155.223 190.925 155.339 191.069C155.396 191.141 155.44 191.196 155.469 191.232L155.502 191.274L155.51 191.284L155.512 191.286L155.866 190.764C156.221 190.241 156.22 190.24 156.22 190.24L156.217 190.236L156.208 190.225L156.174 190.181C156.143 190.143 156.098 190.086 156.039 190.012C155.921 189.865 155.746 189.65 155.521 189.377C155.072 188.83 154.418 188.05 153.602 187.114C151.971 185.244 149.686 182.749 147.076 180.253C144.467 177.758 141.523 175.252 138.572 173.367C135.629 171.487 132.638 170.198 129.948 170.198C124.581 170.198 120.549 175.332 116.711 180.216L116.634 180.315C112.696 185.327 108.949 190.05 104.029 190.05C99.1088 190.05 95.3615 185.327 91.4239 180.315L91.3464 180.216C87.5091 175.332 83.4763 170.198 78.1102 170.198C72.744 170.198 68.7113 175.332 64.874 180.216L64.7965 180.315C60.8589 185.327 57.1115 190.05 52.1915 190.05C47.2714 190.05 43.5241 185.327 39.5864 180.315L39.509 180.216C35.6716 175.332 31.6389 170.198 26.2727 170.198C23.5819 170.198 20.5911 171.487 17.6483 173.367C14.6978 175.252 11.7535 177.758 9.14456 180.253C6.5341 182.749 4.24966 185.244 2.61819 187.114C1.80217 188.05 1.1488 188.83 0.698887 189.377C0.473916 189.65 0.29977 189.865 0.18155 190.012C0.122439 190.086 0.0773052 190.143 0.0467866 190.181L0.0120479 190.225L0.00304774 190.236L0.000666072 190.239C0.000666072 190.239 -0.000293457 190.241 0.354029 190.764Z" fill="#003883"/>
</svg>
