<svg width="1510" height="919" viewBox="0 0 1510 919" fill="none" xmlns="http://www.w3.org/2000/svg">
<path d="M1381 493C1422.42 493 1456 526.579 1456 568C1456 609.421 1422.42 643 1381 643" stroke="#003883" stroke-width="22"/>
<path d="M729.596 4.55552C729.377 3.83151 729.786 3.06723 730.51 2.84844L742.309 -0.716966C743.033 -0.935758 743.797 -0.526203 744.016 0.197797C744.235 0.921799 743.825 1.68608 743.101 1.90487L732.614 5.07412L735.783 15.5615C736.002 16.2855 735.592 17.0498 734.868 17.2686C734.144 17.4874 733.38 17.0778 733.161 16.3538L729.596 4.55552ZM761.233 59.222L761.076 57.8615L761.233 59.222ZM749.345 17.6495L750.38 16.7524L749.345 17.6495ZM777.862 55.6549L778.939 54.8087L777.862 55.6549ZM745.595 35.6107L746.782 36.2938L745.595 35.6107ZM730.907 4.15936C731.553 2.95227 731.554 2.95229 731.554 2.9523C731.554 2.95231 731.554 2.95233 731.554 2.95234C731.554 2.95237 731.554 2.95239 731.554 2.95243C731.554 2.95249 731.554 2.95257 731.554 2.95267C731.555 2.95286 731.555 2.95312 731.556 2.95343C731.557 2.95406 731.558 2.95493 731.56 2.95603C731.565 2.95825 731.571 2.96142 731.578 2.96555C731.593 2.97379 731.616 2.98582 731.645 3.00155C731.703 3.033 731.787 3.07924 731.897 3.13952C732.116 3.26008 732.434 3.43686 732.833 3.66393L731.48 6.04546C731.092 5.82479 730.785 5.65391 730.576 5.53874C730.471 5.48115 730.391 5.43751 730.338 5.40854C730.311 5.39406 730.291 5.38325 730.278 5.3762C730.271 5.37268 730.267 5.37009 730.264 5.36846C730.262 5.36765 730.261 5.36707 730.26 5.36674C730.26 5.36657 730.26 5.36646 730.26 5.36641C730.26 5.36639 730.26 5.36638 730.26 5.36638C730.26 5.36638 730.26 5.36639 730.26 5.3664C730.26 5.36641 730.26 5.36642 730.26 5.36642C730.26 5.36643 730.26 5.36644 730.907 4.15936ZM735.34 5.13334C736.092 5.58678 736.924 6.1004 737.806 6.66362L736.332 8.97206C735.471 8.42267 734.659 7.92127 733.925 7.47838L735.34 5.13334ZM740.235 8.26218C741.019 8.794 741.819 9.35405 742.619 9.93633L741.007 12.1507C740.234 11.5882 739.459 11.0454 738.697 10.5285L740.235 8.26218ZM744.949 11.7038C745.723 12.317 746.482 12.948 747.208 13.5908L745.392 15.6415C744.708 15.0362 743.989 14.4372 743.248 13.8501L744.949 11.7038ZM749.362 15.6431C749.717 16.01 750.057 16.3801 750.38 16.7524L748.31 18.5466C748.023 18.2151 747.716 17.8813 747.393 17.5462L749.362 15.6431ZM750.38 16.7524C750.685 17.1038 750.994 17.4656 751.307 17.8368L749.213 19.6023C748.908 19.2404 748.607 18.8882 748.31 18.5466L750.38 16.7524ZM753.12 20.0425C753.702 20.7686 754.292 21.521 754.885 22.2952L752.71 23.9603C752.13 23.2023 751.552 22.4661 750.983 21.7561L753.12 20.0425ZM756.594 24.5783C757.15 25.3392 757.706 26.1157 758.256 26.904L756.011 28.472C755.472 27.7007 754.928 26.9407 754.383 26.1957L756.594 24.5783ZM759.864 29.2647C760.391 30.0586 760.91 30.8606 761.417 31.6673L759.097 33.1237C758.603 32.3377 758.097 31.5552 757.583 30.7798L759.864 29.2647ZM762.907 34.1158C763.396 34.9476 763.869 35.7811 764.322 36.6124L761.917 37.9226C761.48 37.1198 761.021 36.3128 760.546 35.5052L762.907 34.1158ZM765.652 39.1696C766.087 40.0506 766.495 40.926 766.869 41.7907L764.356 42.8798C764.001 42.0609 763.613 41.227 763.196 40.3826L765.652 39.1696ZM767.946 44.5055C768.289 45.464 768.582 46.4061 768.818 47.3242L766.165 48.0049C765.953 47.1794 765.685 46.3181 765.367 45.427L767.946 44.5055ZM769.376 50.2868C769.497 51.3738 769.511 52.4277 769.387 53.4257L766.669 53.0887C766.761 52.3451 766.757 51.5108 766.654 50.5905L769.376 50.2868ZM768.37 56.6086C767.8 57.6022 767.005 58.442 765.978 59.0951L764.508 56.7839C765.166 56.3659 765.648 55.8497 765.994 55.2461L768.37 56.6086ZM762.935 60.3207C762.446 60.4331 761.93 60.5203 761.389 60.5825L761.076 57.8615C761.525 57.8098 761.94 57.739 762.323 57.6512L762.935 60.3207ZM761.389 60.5825C760.862 60.6431 760.343 60.6823 759.832 60.7006L759.734 57.9635C760.171 57.9477 760.619 57.9141 761.076 57.8615L761.389 60.5825ZM756.693 60.5437C755.616 60.3925 754.59 60.1425 753.618 59.805L754.516 57.2176C755.319 57.4964 756.172 57.7047 757.074 57.8314L756.693 60.5437ZM750.737 58.4637C749.816 57.9145 748.966 57.2796 748.19 56.5756L750.03 54.5471C750.676 55.1327 751.38 55.6581 752.14 56.1111L750.737 58.4637ZM746.064 54.243C745.43 53.4038 744.876 52.5104 744.401 51.5795L746.841 50.3358C747.246 51.129 747.716 51.886 748.25 52.5934L746.064 54.243ZM743.218 48.6835C742.904 47.6863 742.673 46.6651 742.526 45.636L745.238 45.2506C745.363 46.1313 745.562 47.0062 745.831 47.8607L743.218 48.6835ZM742.347 42.509C742.377 41.4547 742.499 40.4061 742.718 39.3809L745.397 39.9537C745.214 40.8092 745.11 41.6916 745.085 42.586L742.347 42.509ZM743.687 36.3569C743.901 35.8689 744.141 35.3917 744.408 34.9276L746.782 36.2938C746.566 36.6693 746.371 37.0573 746.196 37.4561L743.687 36.3569ZM744.408 34.9276C744.68 34.456 744.974 34.0242 745.293 33.6333L747.416 35.3636C747.199 35.6298 746.987 35.9381 746.782 36.2938L744.408 34.9276ZM747.876 31.6072C748.907 31.1461 750.006 30.9798 751.126 31.0397L750.979 33.7748C750.23 33.7347 749.574 33.8481 748.995 34.1074L747.876 31.6072ZM754.115 31.6741C754.988 31.9827 755.872 32.3918 756.758 32.8789L755.44 35.2795C754.656 34.849 753.908 34.5061 753.202 34.2563L754.115 31.6741ZM759.151 34.3657C759.888 34.8735 760.631 35.4276 761.375 36.0188L759.67 38.1628C758.969 37.6051 758.277 37.0892 757.597 36.6215L759.151 34.3657ZM763.478 37.7833C764.151 38.3755 764.823 38.9931 765.493 39.6302L763.605 41.6144C762.958 40.9991 762.312 40.4055 761.668 39.839L763.478 37.7833ZM767.436 41.5395C768.069 42.1796 768.697 42.833 769.318 43.4945L767.321 45.3693C766.714 44.7232 766.103 44.0867 765.488 43.4644L767.436 41.5395ZM771.151 45.4902C771.757 46.1641 772.354 46.8416 772.94 47.5176L770.871 49.3117C770.295 48.6473 769.709 47.9824 769.115 47.3219L771.151 45.4902ZM774.695 49.5751C775.284 50.2774 775.858 50.9726 776.415 51.6549L774.292 53.386C773.743 52.7128 773.177 52.0275 772.597 51.3359L774.695 49.5751ZM778.104 53.7529C778.389 54.1109 778.667 54.4631 778.939 54.8087L776.785 56.5011C776.517 56.1594 776.241 55.8112 775.96 55.4575L778.104 53.7529ZM778.939 54.8087C779.265 55.2237 779.582 55.6395 779.889 56.0554L777.688 57.6845C777.395 57.2896 777.095 56.8949 776.785 56.5011L778.939 54.8087ZM781.679 58.6235C782.266 59.5188 782.813 60.4082 783.322 61.2848L780.953 62.6598C780.468 61.8244 779.947 60.9775 779.389 60.1256L781.679 58.6235ZM784.818 64.0271C785.313 64.9953 785.762 65.9376 786.168 66.844L783.668 67.9636C783.281 67.0982 782.852 66.1987 782.379 65.2748L784.818 64.0271ZM787.371 69.7286C787.785 70.799 788.133 71.7885 788.422 72.6741L785.817 73.523C785.543 72.6811 785.212 71.7384 784.817 70.7171L787.371 69.7286ZM789.302 75.6819C789.428 76.1734 789.518 76.5609 789.577 76.8287C789.606 76.9626 789.628 77.0667 789.642 77.1389C789.65 77.175 789.655 77.2032 789.659 77.2232C789.661 77.2332 789.663 77.2412 789.664 77.247C789.664 77.25 789.665 77.2524 789.665 77.2543C789.665 77.2552 789.665 77.2561 789.666 77.2567C789.666 77.2571 789.666 77.2574 789.666 77.2577C789.666 77.2578 789.666 77.2579 789.666 77.2581C789.666 77.2581 789.666 77.2582 789.666 77.2582C789.666 77.2583 789.666 77.2584 788.32 77.5093C786.973 77.7602 786.973 77.7603 786.973 77.7603C786.973 77.7604 786.973 77.7604 786.973 77.7605C786.973 77.7606 786.973 77.7607 786.973 77.7607C786.973 77.7609 786.973 77.761 786.973 77.7611C786.973 77.7612 786.973 77.7613 786.973 77.7612C786.973 77.761 786.973 77.7603 786.973 77.759C786.973 77.7566 786.972 77.7521 786.97 77.7455C786.968 77.7325 786.964 77.7113 786.958 77.6823C786.946 77.6242 786.928 77.5347 786.901 77.4157C786.849 77.1777 786.767 76.8218 786.649 76.3632L789.302 75.6819Z" fill="#0A2472"/>
<circle cx="621" cy="183" r="18" stroke="#003883" stroke-width="4" stroke-dasharray="8 8"/>
<path d="M1383.5 349.5C1400.07 349.5 1413.5 363.155 1413.5 380C1413.5 396.845 1400.07 410.5 1383.5 410.5" stroke="#003883" stroke-width="30"/>
</svg>
