<svg width="1510" height="850" viewBox="0 0 1510 850" fill="none" xmlns="http://www.w3.org/2000/svg">
<path d="M175.122 154.186C175.225 155.467 175.294 156.757 175.328 158.057L174.328 158.083C174.345 158.72 174.354 159.359 174.354 160C174.354 160.641 174.345 161.28 174.328 161.917L175.328 161.943C175.294 163.243 175.225 164.533 175.122 165.814L174.125 165.734C174.023 167.011 173.887 168.278 173.718 169.534L174.709 169.667C174.536 170.954 174.329 172.229 174.088 173.493L173.106 173.306C172.867 174.562 172.594 175.807 172.29 177.038L173.261 177.278C172.949 178.538 172.605 179.783 172.228 181.014L171.271 180.722C170.897 181.944 170.49 183.152 170.052 184.345L170.991 184.689C170.544 185.906 170.065 187.107 169.555 188.291L168.637 187.895C168.131 189.068 167.595 190.224 167.029 191.361L167.924 191.807C167.347 192.966 166.739 194.107 166.102 195.228L165.232 194.734C164.602 195.844 163.942 196.933 163.253 198.002L164.094 198.544C163.393 199.632 162.664 200.699 161.907 201.744L161.097 201.157C160.349 202.19 159.572 203.2 158.77 204.188L159.546 204.818C158.73 205.822 157.887 206.802 157.018 207.758L156.278 207.085C155.421 208.028 154.538 208.946 153.63 209.839L154.331 210.552C153.409 211.458 152.463 212.339 151.493 213.191L150.832 212.44C149.876 213.281 148.896 214.095 147.894 214.881L148.51 215.668C147.493 216.465 146.454 217.233 145.393 217.972L144.822 217.151C143.777 217.879 142.712 218.576 141.627 219.244L142.15 220.095C141.051 220.772 139.931 221.417 138.792 222.03L138.318 221.15C137.198 221.752 136.06 222.324 134.905 222.862L135.327 223.769C134.158 224.314 132.971 224.826 131.768 225.304L131.399 224.374C130.219 224.843 129.022 225.279 127.811 225.68L128.125 226.63C126.902 227.035 125.663 227.406 124.411 227.741L124.152 226.775C122.927 227.103 121.688 227.396 120.437 227.654L120.639 228.633C119.379 228.892 118.106 229.116 116.822 229.303L116.678 228.313C115.425 228.496 114.161 228.643 112.886 228.753L112.973 229.749C111.693 229.86 110.403 229.935 109.103 229.972L109.075 228.973C108.439 228.991 107.801 229 107.16 229C106.52 229 105.882 228.991 105.246 228.973L105.217 229.972C103.918 229.935 102.628 229.86 101.348 229.749L101.434 228.753C100.16 228.643 98.8959 228.496 97.6428 228.313L97.4988 229.303C96.2147 229.116 94.9421 228.892 93.6821 228.633L93.8837 227.654C92.6324 227.396 91.3936 227.103 90.1685 226.775L89.91 227.741C88.6574 227.406 87.4189 227.035 86.1954 226.63L86.5099 225.68C85.2985 225.279 84.1021 224.843 82.9218 224.374L82.5526 225.304C81.3493 224.826 80.1625 224.314 78.9933 223.769L79.4159 222.862C78.2605 222.324 77.1225 221.752 76.0031 221.15L75.529 222.03C74.3901 221.417 73.2702 220.772 72.1703 220.095L72.6941 219.244C71.6088 218.576 70.5434 217.879 69.4989 217.151L68.9275 217.972C67.8667 217.233 66.8272 216.465 65.8102 215.668L66.4271 214.881C65.425 214.095 64.445 213.281 63.4883 212.44L62.828 213.191C61.8578 212.339 60.9113 211.458 59.9894 210.552L60.6906 209.839C59.7832 208.946 58.9 208.028 58.0423 207.085L57.3025 207.758C56.4338 206.802 55.5908 205.822 54.7748 204.818L55.5508 204.188C54.7483 203.2 53.9721 202.19 53.2234 201.157L52.4138 201.744C51.6566 200.699 50.9272 199.632 50.2266 198.544L51.0674 198.002C50.3792 196.933 49.7192 195.844 49.0884 194.734L48.2191 195.228C47.5818 194.107 46.9741 192.967 46.3969 191.807L47.2922 191.361C46.7259 190.224 46.1894 189.068 45.6839 187.895L44.7655 188.291C44.2555 187.107 43.7765 185.906 43.3296 184.689L44.2683 184.345C43.8304 183.152 43.4237 181.944 43.0493 180.722L42.0931 181.014C41.7162 179.783 41.3715 178.538 41.06 177.278L42.0307 177.038C41.7262 175.807 41.4539 174.562 41.2149 173.306L40.2325 173.493C39.9922 172.229 39.785 170.954 39.6118 169.667L40.6029 169.534C40.4338 168.278 40.2977 167.011 40.1954 165.734L39.1986 165.814C39.0961 164.533 39.0271 163.243 38.9926 161.943L39.9922 161.917C39.9753 161.28 39.9668 160.641 39.9668 160C39.9668 159.359 39.9753 158.72 39.9922 158.083L38.9926 158.057C39.0271 156.757 39.0961 155.467 39.1986 154.186L40.1954 154.266C40.2977 152.989 40.4338 151.722 40.6029 150.466L39.6118 150.333C39.7849 149.046 39.9922 147.771 40.2325 146.507L41.2149 146.694C41.4539 145.438 41.7262 144.193 42.0307 142.962L41.06 142.722C41.3714 141.462 41.7162 140.217 42.0931 138.986L43.0493 139.278C43.4237 138.056 43.8304 136.848 44.2683 135.655L43.3296 135.311C43.7765 134.094 44.2555 132.893 44.7655 131.709L45.6839 132.105C46.1894 130.932 46.7259 129.776 47.2922 128.639L46.3969 128.193C46.9741 127.034 47.5818 125.893 48.2191 124.772L49.0884 125.266C49.7191 124.156 50.3792 123.067 51.0674 121.998L50.2266 121.456C50.9272 120.368 51.6566 119.301 52.4138 118.256L53.2234 118.843C53.9721 117.81 54.7483 116.8 55.5507 115.812L54.7748 115.182C55.5908 114.178 56.4338 113.198 57.3025 112.242L58.0423 112.915C58.9 111.972 59.7832 111.054 60.6906 110.161L59.9894 109.448C60.9113 108.542 61.8578 107.661 62.828 106.809L63.4882 107.56C64.445 106.719 65.425 105.905 66.4271 105.119L65.8102 104.332C66.8272 103.535 67.8667 102.767 68.9275 102.028L69.4989 102.849C70.5434 102.121 71.6088 101.424 72.6941 100.756L72.1703 99.9045C73.2702 99.2283 74.3901 98.583 75.529 97.9698L76.0031 98.8503C77.1225 98.2476 78.2605 97.6764 79.4159 97.1378L78.9933 96.2314C80.1625 95.6864 81.3493 95.1743 82.5526 94.6962L82.9218 95.6255C84.1021 95.1566 85.2985 94.7209 86.5099 94.3195L86.1954 93.3703C87.4189 92.965 88.6574 92.5942 89.91 92.259L90.1685 93.225C91.3936 92.8972 92.6324 92.604 93.8837 92.3465L93.6821 91.367C94.9421 91.1077 96.2147 90.8841 97.4988 90.6971L97.6428 91.6867C98.8959 91.5043 100.16 91.3574 101.434 91.2469L101.348 90.2507C102.628 90.1398 103.918 90.0652 105.217 90.0279L105.246 91.0275C105.882 91.0092 106.52 91 107.16 91C107.801 91 108.439 91.0092 109.075 91.0275L109.103 90.0279C110.403 90.0652 111.693 90.1398 112.973 90.2507L112.886 91.2469C114.161 91.3574 115.425 91.5043 116.678 91.6867L116.822 90.6971C118.106 90.8841 119.379 91.1077 120.639 91.367L120.437 92.3465C121.688 92.604 122.927 92.8972 124.152 93.225L124.411 92.259C125.663 92.5942 126.902 92.965 128.125 93.3703L127.811 94.3195C129.022 94.7209 130.219 95.1566 131.399 95.6255L131.768 94.6962C132.971 95.1743 134.158 95.6864 135.327 96.2314L134.905 97.1378C136.06 97.6764 137.198 98.2476 138.318 98.8503L138.792 97.9698C139.931 98.583 141.051 99.2283 142.15 99.9045L141.627 100.756C142.712 101.424 143.777 102.121 144.822 102.849L145.393 102.028C146.454 102.767 147.493 103.535 148.51 104.332L147.894 105.119C148.896 105.905 149.876 106.719 150.832 107.56L151.493 106.809C152.463 107.661 153.409 108.542 154.331 109.448L153.63 110.161C154.538 111.054 155.421 111.972 156.278 112.915L157.018 112.242C157.887 113.198 158.73 114.178 159.546 115.182L158.77 115.812C159.572 116.8 160.349 117.81 161.097 118.843L161.907 118.256C162.664 119.301 163.393 120.368 164.094 121.456L163.253 121.998C163.942 123.067 164.602 124.156 165.232 125.266L166.102 124.772C166.739 125.893 167.347 127.033 167.924 128.193L167.029 128.639C167.595 129.776 168.131 130.932 168.637 132.105L169.555 131.709C170.065 132.893 170.544 134.094 170.991 135.311L170.052 135.655C170.49 136.848 170.897 138.056 171.271 139.278L172.228 138.986C172.605 140.217 172.949 141.462 173.261 142.722L172.29 142.962C172.594 144.193 172.867 145.438 173.106 146.694L174.088 146.507C174.329 147.771 174.536 149.046 174.709 150.333L173.718 150.466C173.887 151.722 174.023 152.989 174.125 154.266L175.122 154.186Z" stroke="white" stroke-width="2" stroke-dasharray="4 4"/>
<path d="M217.924 8.98749C219.299 11.1222 220.285 13.5434 220.78 16.145L218.815 16.5187C219.029 17.6435 219.142 18.8073 219.142 20C219.142 21.1927 219.029 22.3565 218.815 23.4813L220.78 23.855C220.285 26.4566 219.299 28.8778 217.924 31.0125L216.243 29.9299C214.973 31.9022 213.337 33.6001 211.439 34.9221L212.581 36.5634C210.48 38.0262 208.086 39.0789 205.509 39.6094L205.105 37.6505C203.992 37.8795 202.84 38 201.658 38C200.476 38 199.323 37.8795 198.21 37.6505L197.807 39.6094C195.229 39.0789 192.835 38.0262 190.734 36.5634L191.877 34.9221C189.978 33.6001 188.342 31.9022 187.073 29.9299L185.391 31.0125C184.017 28.8778 183.03 26.4566 182.535 23.855L184.5 23.4813C184.286 22.3565 184.174 21.1927 184.174 20C184.174 18.8073 184.286 17.6435 184.5 16.5187L182.535 16.145C183.03 13.5434 184.017 11.1222 185.391 8.98749L187.073 10.0701C188.342 8.09784 189.978 6.39992 191.877 5.07791L190.734 3.43658C192.835 1.97375 195.229 0.921063 197.807 0.390577L198.21 2.34953C199.323 2.12047 200.476 2 201.658 2C202.84 2 203.992 2.12047 205.105 2.34953L205.509 0.390576C208.086 0.921062 210.48 1.97375 212.581 3.43658L211.439 5.07791C213.337 6.39992 214.973 8.09784 216.243 10.0701L217.924 8.98749Z" stroke="white" stroke-width="4" stroke-dasharray="8 8"/>
<circle r="14.3077" transform="matrix(0.697804 -0.716289 0.697804 0.716289 264.98 160)" stroke="white" stroke-dasharray="8 8"/>
<path d="M68.5963 752.519L103.329 716.866L131.535 745.82L96.7298 781.547L95.3702 782.943L96.7298 784.339L131.535 820.066L103.329 849.02L68.5963 813.367L67.1637 811.897L65.7312 813.367L30.9986 849.02L2.79217 820.066L37.5977 784.339L38.9573 782.943L37.5977 781.547L2.79217 745.82L30.9986 716.866L65.7312 752.519L67.1637 753.989L68.5963 752.519Z" stroke="url(#paint0_linear_1791_2351)" stroke-width="4"/>
<path d="M1339.52 73.0203C1339.52 73.0203 1363.23 84.2993 1379.53 85.4767C1394.12 86.5315 1414.94 86.1827 1431.17 82.6483M1431.17 82.6483C1449.23 78.7154 1461.63 70.8379 1453.46 56.5602C1439.98 32.982 1409.54 40.9897 1401.71 59.6743C1396.1 73.0471 1411.89 79.5147 1431.17 82.6483ZM1431.17 82.6483C1443.01 84.5734 1456.18 85.2402 1466.51 85.4767C1491.3 86.0443 1510 76.5793 1510 76.5793" stroke="white" stroke-width="2" stroke-linecap="round"/>
<defs>
<linearGradient id="paint0_linear_1791_2351" x1="82.8353" y1="865.215" x2="26.8568" y2="726.256" gradientUnits="userSpaceOnUse">
<stop stop-color="white"/>
<stop offset="1" stop-color="white" stop-opacity="0"/>
</linearGradient>
</defs>
</svg>
