<svg width="1510" height="1791" viewBox="0 0 1510 1791" fill="none" xmlns="http://www.w3.org/2000/svg">
<path fill-rule="evenodd" clip-rule="evenodd" d="M1327.77 865.162L1302.89 844.328L1248.45 889.907L1269.24 963.656H1304.66L1335.54 984.205L1385.55 932.318L1358.18 861.478L1327.77 865.162ZM1331.92 868.639L1327.77 865.162L1291.26 869.584L1277.27 945.433L1304.66 963.656H1311.53L1335.1 979.34L1381.4 931.301L1356.06 865.715L1331.92 868.639ZM1331.92 868.639L1357.32 889.907L1336.53 963.656H1311.53L1281.15 943.444L1294.1 873.219L1331.92 868.639Z" fill="#003883"/>
<path d="M192.749 1313.4L214.19 1348.29L250.066 1373.02L206.549 1368.67L167.277 1381.32L189.354 1350.78L192.749 1313.4Z" fill="#003883"/>
<path fill-rule="evenodd" clip-rule="evenodd" d="M183.399 1348.6L151.941 1392.11L207.902 1374.09L269.914 1380.29L218.791 1345.05L188.238 1295.33L183.399 1348.6ZM187.836 1350.22L191.599 1308.79L215.363 1347.47L255.125 1374.88L206.894 1370.05L163.368 1384.07L187.836 1350.22Z" fill="#003883"/>
<path d="M1191.21 79.7903C1203.76 57.8118 1239.18 95.6442 1254.05 87.8927C1268.91 80.1411 1255.92 55.3238 1270.78 47.5722C1285.64 39.8206 1301.29 46.8068 1316.15 39.0552C1331.01 31.3036 1315.33 16.8832 1340.47 1.93549" stroke="#003883" stroke-width="2.50609" stroke-linecap="round" stroke-dasharray="5.01 5.01"/>
</svg>
