<svg width="32" height="33" viewBox="0 0 32 33" fill="none" xmlns="http://www.w3.org/2000/svg">
<path d="M16.0013 3.55469C8.66797 3.55469 2.66797 9.54135 2.66797 16.9147C2.66797 23.5814 7.54797 29.1147 13.9213 30.1147V20.7814H10.5346V16.9147H13.9213V13.968C13.9213 10.6214 15.908 8.78135 18.9613 8.78135C20.4146 8.78135 21.9346 9.03469 21.9346 9.03469V12.328H20.2546C18.6013 12.328 18.0813 13.3547 18.0813 14.408V16.9147H21.788L21.188 20.7814H18.0813V30.1147C21.2232 29.6185 24.0842 28.0154 26.1479 25.5948C28.2115 23.1742 29.3418 20.0955 29.3346 16.9147C29.3346 9.54135 23.3346 3.55469 16.0013 3.55469Z" fill="#CED3E3"/>
</svg>
