<svg width="32" height="33" viewBox="0 0 32 33" fill="none" xmlns="http://www.w3.org/2000/svg">
<path d="M10.4013 3.50195H21.6013C25.868 3.50195 29.3346 6.96862 29.3346 11.2353V22.4353C29.3346 24.4863 28.5199 26.4533 27.0696 27.9036C25.6193 29.3539 23.6523 30.1686 21.6013 30.1686H10.4013C6.13464 30.1686 2.66797 26.702 2.66797 22.4353V11.2353C2.66797 9.18428 3.48273 7.21728 4.93301 5.76699C6.38329 4.31671 8.35029 3.50195 10.4013 3.50195V3.50195ZM10.1346 6.16862C8.8616 6.16862 7.6407 6.67433 6.74052 7.57451C5.84035 8.47468 5.33464 9.69558 5.33464 10.9686V22.702C5.33464 25.3553 7.4813 27.502 10.1346 27.502H21.868C23.141 27.502 24.3619 26.9962 25.2621 26.0961C26.1623 25.1959 26.668 23.975 26.668 22.702V10.9686C26.668 8.31529 24.5213 6.16862 21.868 6.16862H10.1346ZM23.0013 8.16862C23.4433 8.16862 23.8673 8.34421 24.1798 8.65677C24.4924 8.96934 24.668 9.39326 24.668 9.83529C24.668 10.2773 24.4924 10.7012 24.1798 11.0138C23.8673 11.3264 23.4433 11.502 23.0013 11.502C22.5593 11.502 22.1353 11.3264 21.8228 11.0138C21.5102 10.7012 21.3346 10.2773 21.3346 9.83529C21.3346 9.39326 21.5102 8.96934 21.8228 8.65677C22.1353 8.34421 22.5593 8.16862 23.0013 8.16862ZM16.0013 10.1686C17.7694 10.1686 19.4651 10.871 20.7153 12.1212C21.9656 13.3715 22.668 15.0672 22.668 16.8353C22.668 18.6034 21.9656 20.2991 20.7153 21.5493C19.4651 22.7996 17.7694 23.502 16.0013 23.502C14.2332 23.502 12.5375 22.7996 11.2873 21.5493C10.037 20.2991 9.33463 18.6034 9.33463 16.8353C9.33463 15.0672 10.037 13.3715 11.2873 12.1212C12.5375 10.871 14.2332 10.1686 16.0013 10.1686V10.1686ZM16.0013 12.8353C14.9404 12.8353 13.923 13.2567 13.1729 14.0069C12.4227 14.757 12.0013 15.7744 12.0013 16.8353C12.0013 17.8962 12.4227 18.9136 13.1729 19.6637C13.923 20.4139 14.9404 20.8353 16.0013 20.8353C17.0622 20.8353 18.0796 20.4139 18.8297 19.6637C19.5799 18.9136 20.0013 17.8962 20.0013 16.8353C20.0013 15.7744 19.5799 14.757 18.8297 14.0069C18.0796 13.2567 17.0622 12.8353 16.0013 12.8353Z" fill="#CED3E3"/>
</svg>
