<svg width="32" height="33" viewBox="0 0 32 33" fill="none" xmlns="http://www.w3.org/2000/svg">
<path d="M25.3333 4.83594C26.0406 4.83594 26.7189 5.11689 27.219 5.61699C27.719 6.11708 28 6.79536 28 7.5026V26.1693C28 26.8765 27.719 27.5548 27.219 28.0549C26.7189 28.555 26.0406 28.8359 25.3333 28.8359H6.66667C5.95942 28.8359 5.28115 28.555 4.78105 28.0549C4.28095 27.5548 4 26.8765 4 26.1693V7.5026C4 6.79536 4.28095 6.11708 4.78105 5.61699C5.28115 5.11689 5.95942 4.83594 6.66667 4.83594H25.3333ZM24.6667 25.5026V18.4359C24.6667 17.2831 24.2087 16.1775 23.3936 15.3624C22.5784 14.5472 21.4728 14.0893 20.32 14.0893C19.1867 14.0893 17.8667 14.7826 17.2267 15.8226V14.3426H13.5067V25.5026H17.2267V18.9293C17.2267 17.9026 18.0533 17.0626 19.08 17.0626C19.5751 17.0626 20.0499 17.2593 20.3999 17.6093C20.75 17.9594 20.9467 18.4342 20.9467 18.9293V25.5026H24.6667ZM9.17333 12.2493C9.76742 12.2493 10.3372 12.0133 10.7573 11.5932C11.1773 11.1731 11.4133 10.6034 11.4133 10.0093C11.4133 8.76927 10.4133 7.75594 9.17333 7.75594C8.57571 7.75594 8.00257 7.99334 7.57999 8.41592C7.1574 8.83851 6.92 9.41165 6.92 10.0093C6.92 11.2493 7.93333 12.2493 9.17333 12.2493ZM11.0267 25.5026V14.3426H7.33333V25.5026H11.0267Z" fill="#CED3E3"/>
</svg>
