<svg width="32" height="33" viewBox="0 0 32 33" fill="none" xmlns="http://www.w3.org/2000/svg">
<path d="M29.948 8.83561C28.9214 9.30228 27.8147 9.60895 26.668 9.75561C27.8414 9.04895 28.748 7.92895 29.1747 6.58228C28.068 7.24895 26.8414 7.71561 25.548 7.98228C24.4947 6.83561 23.0147 6.16895 21.3347 6.16895C18.2014 6.16895 15.6414 8.72895 15.6414 11.8889C15.6414 12.3423 15.6947 12.7823 15.788 13.1956C11.0414 12.9556 6.81469 10.6756 4.00135 7.22228C3.50802 8.06228 3.22802 9.04895 3.22802 10.0889C3.22802 12.0756 4.22802 13.8356 5.77469 14.8356C4.82802 14.8356 3.94802 14.5689 3.17469 14.1689C3.17469 14.1689 3.17469 14.1689 3.17469 14.2089C3.17469 16.9823 5.14802 19.3023 7.76135 19.8223C7.28135 19.9556 6.77469 20.0223 6.25469 20.0223C5.89469 20.0223 5.53469 19.9823 5.18802 19.9156C5.90802 22.1689 8.00135 23.8489 10.5214 23.8889C8.57469 25.4356 6.10802 26.3423 3.41469 26.3423C2.96135 26.3423 2.50802 26.3156 2.05469 26.2623C4.58802 27.8889 7.60135 28.8356 10.828 28.8356C21.3347 28.8356 27.108 20.1156 27.108 12.5556C27.108 12.3023 27.108 12.0623 27.0947 11.8089C28.2147 11.0089 29.1747 9.99561 29.948 8.83561Z" fill="#CED3E3"/>
</svg>
